<?xml version="1.0" encoding="UTF-8"?>
<svg id="Voorstel" xmlns="http://www.w3.org/2000/svg" version="1.1" viewBox="0 0 822.05 170.08">
  <!-- Generator: Adobe Illustrator 30.4.0, SVG Export Plug-In . SVG Version: 2.1.4 Build 226)  -->
  <defs>
    <style>
      .st0 {
        fill: #4d2ee8;
      }

      .st1 {
        fill: #6236ff;
      }

      .st2 {
        display: none;
        fill: #e3e3ff;
      }
    </style>
  </defs>
  <g>
    <path class="st1" d="M300.24,31.55v12.21h-22.39v73.28h-12.21V43.76h-22.39v-12.21h57Z"/>
    <path class="st1" d="M365.38,55.98v61.07h-12.21v-8.91c-4.96,6.49-12.09,9.93-20.36,9.93-17.81,0-30.53-14.12-30.53-31.55s12.72-31.55,30.53-31.55c8.27,0,15.39,3.44,20.36,9.93v-8.91h12.21ZM353.17,86.51c0-10.69-8.65-19.34-19.34-19.34s-19.34,8.65-19.34,19.34,8.65,19.34,19.34,19.34,19.34-8.65,19.34-19.34Z"/>
    <path class="st1" d="M379.62,36.64c0-5.09,4.07-9.16,9.16-9.16s9.16,4.07,9.16,9.16-4.07,9.16-9.16,9.16-9.16-4.07-9.16-9.16ZM382.68,55.98h12.21v61.07h-12.21v-61.07Z"/>
    <path class="st1" d="M424.41,27.48v89.57h-12.21V27.48h12.21Z"/>
    <path class="st1" d="M499.72,86.51c0,17.43-14.12,31.55-31.55,31.55s-31.55-14.12-31.55-31.55,14.12-31.55,31.55-31.55,31.55,14.12,31.55,31.55ZM487.51,86.51c0-10.56-8.78-19.34-19.34-19.34s-19.34,8.78-19.34,19.34,8.78,19.34,19.34,19.34,19.34-8.78,19.34-19.34Z"/>
    <path class="st1" d="M548.57,54.96v13.36c-2.93-.89-7.38-.89-11.2.51-8.02,3.05-13.23,9.8-13.23,20.99v27.23h-12.21v-61.07h12.21v13.11c4.2-8.78,12.98-14.12,24.43-14.12Z"/>
    <path class="st1" d="M652.39,82.95v34.1h-12.21v-34.1c0-9.8-3.31-15.78-11.7-15.78-7.38,0-14.76,5.85-14.76,16.29v33.59h-12.21v-34.1c0-9.8-3.31-15.78-11.71-15.78-7.38,0-14.76,5.85-14.76,16.29v33.59h-12.21v-61.07h12.21v7.12c3.56-4.07,7.51-8.14,17.05-8.14,7.89,0,13.87,3.31,17.56,9.67,6.49-7,12.47-9.67,21.12-9.67,13.49,0,21.63,9.93,21.63,27.99Z"/>
    <path class="st1" d="M727.69,55.98v61.07h-12.21v-8.91c-4.96,6.49-12.09,9.93-20.36,9.93-17.81,0-30.53-14.12-30.53-31.55s12.72-31.55,30.53-31.55c8.27,0,15.39,3.44,20.36,9.93v-8.91h12.21ZM715.48,86.51c0-10.69-8.65-19.34-19.34-19.34s-19.34,8.65-19.34,19.34,8.65,19.34,19.34,19.34,19.34-8.65,19.34-19.34Z"/>
    <path class="st1" d="M808.1,86.51c0,17.43-12.72,31.55-30.53,31.55-8.27,0-15.39-3.44-20.36-9.93v41.48h-12.21V55.98h12.21v8.91c4.96-6.49,12.09-9.93,20.36-9.93,17.81,0,30.53,14.12,30.53,31.55ZM795.88,86.51c0-10.69-8.65-19.34-19.34-19.34s-19.34,8.65-19.34,19.34,8.65,19.34,19.34,19.34,19.34-8.65,19.34-19.34Z"/>
  </g>
  <g>
    <polygon class="st2" points="44.66 126.55 58.97 35.18 109.62 22.75 119.93 101.61 44.66 126.55"/>
    <polygon class="st1" points="139.34 90.25 117.84 85.23 47.4 108.51 35.61 105.19 49.88 40.93 58 41.92 103.89 31.3 109.98 26.3 121.72 24.22 109.62 22.75 58.97 35.18 39.88 32.52 11.66 115.59 44.66 126.55 119.93 101.61 163.36 112.6 137.36 33.66 129.68 39.09 139.34 90.25"/>
    <polygon class="st1" points="76.19 69.95 62.79 58.5 54.99 59.83 76.47 94.3 107.44 51.06 112.39 44.32 141.33 25.75 132.81 23.76 110.74 31.98 93.44 51.06 76.19 69.95"/>
    <polygon class="st0" points="119.93 101.61 119.94 101.61 117.77 85.25 47.44 108.49 44.6 126.53 44.66 126.55 119.93 101.61"/>
    <polygon class="st0" points="58 41.92 103.89 31.3 109.96 26.31 109.5 22.78 58.97 35.18 58.96 35.17 57.9 41.91 58 41.92"/>
    <polygon class="st1" points="54.99 59.83 55.07 59.95 55.09 59.81 54.99 59.83"/>
    <polygon class="st0" points="107.44 51.06 112.36 44.37 110.72 32.01 93.44 51.06 76.19 69.95 62.79 58.5 55.09 59.81 55.07 59.95 76.47 94.3 107.44 51.06"/>
  </g>
</svg>