<?xml version="1.0" encoding="UTF-8"?>
<svg id="Layer_2" data-name="Layer 2" xmlns="http://www.w3.org/2000/svg" viewBox="0 0 534.05 144.5">
  <defs>
    <style>
      .cls-1 {
        fill: #31bde7;
      }

      .cls-2 {
        fill: #2c353a;
      }

      .cls-3 {
        fill: #628a8f;
      }

      .cls-4 {
        fill: #8a9f70;
      }

      .cls-5 {
        fill: #2c353c;
      }

      .cls-6 {
        fill: #5fb570;
      }

      .cls-7 {
        fill: #328182;
      }

      .cls-8 {
        fill: #bdb797;
      }
    </style>
  </defs>
  <g id="Layer_1-2" data-name="Layer 1">
    <path class="cls-1" d="M42.86,58.78c3.03,0,5.99.32,8.84.92,4.07-15.22,16.31-27.09,31.73-30.64C77.69,12.16,61.7,0,42.86,0,19.19,0,0,19.19,0,42.86c0,11.38,4.44,21.72,11.68,29.39,7.82-8.29,18.89-13.47,31.18-13.47Z"/>
    <path class="cls-8" d="M52.52,84.61c-3.11.72-6.34,1.11-9.66,1.11-12.29,0-23.37-5.18-31.18-13.47-7.24,7.67-11.68,18.01-11.68,29.39,0,23.67,19.19,42.86,42.86,42.86,19.83,0,36.5-13.47,41.4-31.75-14.88-3.12-26.91-13.96-31.73-28.14Z"/>
    <path class="cls-3" d="M42.86,85.72c3.32,0,6.56-.39,9.66-1.11-1.47-4.33-2.29-8.97-2.29-13.81,0-3.84.51-7.57,1.46-11.11-2.85-.6-5.81-.92-8.84-.92-12.29,0-23.37,5.18-31.18,13.47,7.82,8.29,18.89,13.47,31.18,13.47Z"/>
    <path class="cls-6" d="M93.1,27.95c-3.32,0-6.56.39-9.66,1.11,1.47,4.33,2.29,8.97,2.29,13.81,0,11.38-4.44,21.72-11.68,29.39,7.24,7.67,11.68,18.01,11.68,29.39,0,3.84-.51,7.57-1.46,11.11,2.85.6,5.81.92,8.84.92,23.67,0,42.86-19.19,42.86-42.86s-19.19-42.86-42.86-42.86Z"/>
    <path class="cls-7" d="M51.7,59.7c8.72,1.83,16.45,6.31,22.34,12.55,7.24-7.67,11.68-18.01,11.68-29.39,0-4.83-.81-9.47-2.29-13.81-15.42,3.56-27.66,15.42-31.73,30.64Z"/>
    <path class="cls-4" d="M74.04,72.25c-5.7,6.05-13.14,10.43-21.52,12.36,4.82,14.18,16.85,25.02,31.73,28.14.95-3.55,1.46-7.27,1.46-11.11,0-11.38-4.44-21.72-11.68-29.39Z"/>
    <path class="cls-5" d="M51.7,59.7c-.95,3.55-1.46,7.27-1.46,11.11,0,4.83.81,9.47,2.29,13.81,8.38-1.93,15.82-6.32,21.52-12.36-5.89-6.25-13.62-10.73-22.34-12.55Z"/>
    <g>
      <path class="cls-2" d="M187.78,90.36c-2.29.82-6.81,2.17-12.15,2.17-5.99,0-10.92-1.53-14.79-5.22-3.4-3.29-5.52-8.57-5.52-14.73.06-11.8,8.16-20.43,21.43-20.43,4.58,0,8.16,1,9.86,1.82l-1.23,4.17c-2.11-.94-4.75-1.7-8.75-1.7-9.63,0-15.91,5.99-15.91,15.91s6.05,15.97,15.26,15.97c3.35,0,5.64-.47,6.81-1.06v-11.8h-8.04v-4.11h13.03v19.02Z"/>
      <path class="cls-2" d="M216.08,73.57h-15.38v14.26h17.14v4.29h-22.25v-39.56h21.37v4.29h-16.26v12.5h15.38v4.23Z"/>
      <path class="cls-2" d="M258.28,71.93c0,13.62-8.28,20.84-18.37,20.84s-17.79-8.1-17.79-20.08c0-12.56,7.81-20.78,18.37-20.78s17.79,8.28,17.79,20.02ZM227.58,72.57c0,8.45,4.58,16.03,12.62,16.03s12.68-7.46,12.68-16.44c0-7.87-4.11-16.08-12.62-16.08s-12.68,7.81-12.68,16.49Z"/>
      <path class="cls-2" d="M283.76,79.68l-4.11,12.44h-5.28l13.44-39.56h6.16l13.5,39.56h-5.46l-4.23-12.44h-14.03ZM296.73,75.69l-3.88-11.39c-.88-2.58-1.47-4.93-2.05-7.22h-.12c-.59,2.35-1.23,4.75-2,7.16l-3.88,11.45h11.92Z"/>
      <path class="cls-2" d="M340.05,90.83c-1.88.94-5.63,1.88-10.45,1.88-11.15,0-19.55-7.04-19.55-20.02s8.39-20.78,20.66-20.78c4.93,0,8.04,1.06,9.39,1.76l-1.23,4.17c-1.94-.94-4.7-1.64-7.98-1.64-9.27,0-15.44,5.93-15.44,16.32,0,9.69,5.58,15.91,15.2,15.91,3.11,0,6.28-.65,8.33-1.64l1.06,4.05Z"/>
      <path class="cls-2" d="M353.08,79.68l-4.11,12.44h-5.28l13.44-39.56h6.16l13.5,39.56h-5.46l-4.23-12.44h-14.03ZM366.05,75.69l-3.87-11.39c-.88-2.58-1.47-4.93-2.05-7.22h-.12c-.59,2.35-1.23,4.75-2,7.16l-3.87,11.45h11.92Z"/>
      <path class="cls-2" d="M382.61,53.09c3.11-.47,6.81-.82,10.86-.82,7.34,0,12.56,1.7,16.02,4.93,3.52,3.23,5.58,7.81,5.58,14.21s-2,11.74-5.69,15.38c-3.7,3.7-9.8,5.69-17.49,5.69-3.64,0-6.69-.18-9.28-.47v-38.92ZM387.71,88.07c1.29.23,3.17.29,5.17.29,10.92,0,16.85-6.1,16.85-16.79.06-9.33-5.22-15.26-16.03-15.26-2.64,0-4.64.23-5.99.53v31.23Z"/>
      <path class="cls-2" d="M442.19,73.57h-15.38v14.26h17.14v4.29h-22.25v-39.56h21.37v4.29h-16.26v12.5h15.38v4.23Z"/>
      <path class="cls-2" d="M483.92,74.75c-.29-5.52-.65-12.15-.59-17.08h-.18c-1.35,4.64-2.99,9.57-4.99,15.03l-6.99,19.19h-3.88l-6.4-18.84c-1.88-5.58-3.46-10.68-4.58-15.38h-.12c-.12,4.93-.41,11.56-.76,17.49l-1.06,16.96h-4.87l2.76-39.56h6.52l6.75,19.14c1.64,4.87,2.99,9.22,3.99,13.33h.18c1-3.99,2.41-8.34,4.17-13.33l7.04-19.14h6.52l2.47,39.56h-4.99l-1-17.38Z"/>
      <path class="cls-2" d="M502.88,52.56v39.56h-5.11v-39.56h5.11Z"/>
      <path class="cls-2" d="M532.29,73.57h-15.38v14.26h17.14v4.29h-22.25v-39.56h21.37v4.29h-16.26v12.5h15.38v4.23Z"/>
    </g>
  </g>
</svg>