<?xml version="1.0" encoding="UTF-8"?>
<svg id="Layer_1" xmlns="http://www.w3.org/2000/svg" version="1.1" viewBox="0 0 1145.3 155">
  <!-- Generator: Adobe Illustrator 30.2.1, SVG Export Plug-In . SVG Version: 2.1.1 Build 1)  -->
  <defs>
    <style>
      .st0 {
        fill: #004996;
      }

      .st1 {
        fill: #00172e;
      }

      .st2 {
        fill: #00948b;
      }

      .st3 {
        fill: #00ddc5;
      }

      .st4 {
        stroke-width: .1px;
      }

      .st4, .st5 {
        fill: #1d1d1b;
        stroke: #1d1d1b;
        stroke-miterlimit: 3.9;
      }

      .st5 {
        stroke-width: 1.4px;
      }
    </style>
  </defs>
  <g>
    <path class="st1" d="M782.9,124.3h16.6V45.4h-16.6v78.8ZM791.3,14.4c-5.7,0-10.2,4.2-10.2,10s4.5,10,10.2,10,10.2-4.2,10.2-10-4.5-10-10.2-10ZM737.3,77.2c-11.4-1.2-18.9-2.2-18.9-9.5s6.5-10.3,16.3-10.3,16.6,5.1,17.5,12.3h16.3c-1.1-16.2-14.8-25.1-34.2-25.1-18.9-.2-32.3,9.5-32.3,24.5s14.2,20.2,32.2,22.3c12.2,1.5,19.4,2.2,19.4,10.6s-6.8,10.3-17.1,10.3-19.1-5.8-19.7-14h-16.3c.5,17.1,14.9,26.9,36,26.9s33.4-9.5,33.4-24.6-14.6-21.2-32.6-23.4h0ZM668,57.3l-1.8-11.9h-14.8v78.8h16.6v-39.6c0-12.2,4.8-23.7,19.5-23.7h7.4v-15.5h-3.7c-12.9,0-19.2,5.2-23.2,11.9h0ZM578.8,76.2c1.2-11.2,10.3-18.3,20.9-18.3s19.7,6.6,21.1,18.3h-42ZM599.5,44.5c-23.2,0-38.8,16.2-38.8,40.5s15.5,40.2,40.3,40.2,32.8-11.9,35.6-27.4h-16.6c-2.3,8.8-9.7,13.9-19.9,13.9s-21.5-8.8-22-22.2v-1.1h59.4c.3-2.2.5-4.3.5-6.3-.5-23.1-15.7-37.6-38.5-37.6h0ZM909.4,105.3l-22-59.9h-17.7l30.6,79.3-3.1,7.7c-2.5,6.5-4,8-10.5,8h-11.7v14.6h17.9c11.5,0,14.9-5.7,19.9-18.5l35.7-91.1h-17.7l-21.4,59.9ZM841.4,101.2v-41.1h19.2v-14.6h-19.2v-22h-16.8v22h-12.5v14.6h12.5v42.8c0,14.3,6.5,21.4,21.5,21.4h15.4v-14.6h-11.7c-6.3,0-8.5-2.3-8.5-8.5ZM249.6,80.2h29.9v2.6c-.9,17.4-14.3,26.8-30.9,26.8s-33.6-16.2-33.6-39.3,13.2-39.3,33.7-39.3,25.2,8.3,28.5,22h18.3c-3.2-22.8-21.4-37.6-46.3-37.6s-52.3,22-52.3,54.8,20.8,54.8,50.9,54.8,28.2-7.7,33.4-15.4l1.5,14.5h13.7v-59h-46.8v14.9ZM328.2,76.2c1.2-11.2,10.3-18.3,20.9-18.3s19.7,6.6,21.1,18.3h-42ZM348.9,44.5c-23.2,0-38.8,16.2-38.8,40.5s15.5,40.2,40.3,40.2,32.8-11.9,35.6-27.4h-16.6c-2.3,8.8-9.7,13.9-19.9,13.9s-21.6-8.8-22-22.2v-1.1h59.4c.3-2.2.5-4.3.5-6.3-.5-23.1-15.7-37.6-38.5-37.6h0ZM438.1,111c-14,0-23.1-10.9-23.1-26.2s9.1-26.2,23.1-26.2,23.2,10.9,23.2,26.2-9.2,26.2-23.2,26.2ZM438.1,44.5c-24,0-40.2,16.3-40.2,40.3s16.2,40.3,40.2,40.3,40.2-16.2,40.2-40.3-16.2-40.3-40.2-40.3ZM519.8,106.4l-21.7-61h-17.9l29.1,78.8h20.3l29.1-78.8h-17.5l-21.4,61Z"/>
    <path class="st3" d="M28.4,60.1c-12.8-20.2-15.6-35.3-12.3-41.9.5-1.1,2.2-4.3,9.6-4.3s21.7,4.9,35.4,13.5c-11.9,9.6-23.1,20.8-32.7,32.7ZM61.1,118.1c-13.7,8.7-26.3,13.5-35.4,13.5s-9.1-3.3-9.6-4.3c-3.3-6.6-.5-21.7,12.3-41.9,9.6,11.9,20.8,23.1,32.7,32.7ZM119.1,85.4c12.8,20.2,15.6,35.3,12.3,41.9-.5,1.1-2.2,4.3-9.6,4.3s-21.7-4.9-35.4-13.5c11.9-9.6,23.1-20.8,32.7-32.7h0ZM146,37.4c2.8-11.6,1.7-21.2-3.2-28C139.7,5.1,133.5,0,121.8,0s-30.1,6.7-48.1,19C55.8,6.7,38.8,0,25.7,0S6.9,4.4,2.9,12.5c-3.8,7.4-3.8,17.6-.1,29.5,3,9.7,8.6,20.7,16.2,31.8-7.6,11.2-13.2,22.1-16.2,31.8-3.7,11.9-3.6,22,.1,29.5,4.1,8,12.2,12.5,22.8,12.5s30.1-6.7,48.1-19c18,12.2,35,19,48.1,19s18.7-4.4,22.8-12.5c3.8-7.4,3.8-17.6.1-29.5-3.3-10.4-9.4-22.2-17.9-34.2l-3.7-5h-42.2l-14.8,14.9h38c-9.1,10.7-19.5,20.6-30.4,29-13.4-10.3-26.1-23-36.5-36.4,11.9-15.4,26.8-29.8,42.4-40.8,16.2-11.5,31.6-18.1,42.2-18.1s7.4,1.1,9,3.3c1.2,1.7,3.6,6.9-.2,19.2h15.4Z"/>
  </g>
  <g>
    <path class="st4" d="M1066.3,136.4h11.9v18.3h-11.9v-18.3Z"/>
    <path class="st4" d="M1110.1,136.4v5.9l-6.6-.2v12.5h-11.9v-12.5l-6.6.2v-5.9h25.1Z"/>
    <path class="st5" d="M1139.3,143.8c-1.9-1-4.3-1.8-7-1.8s-6.5,1.6-6.5,3.6,3.1,3.6,6.7,3.6,4.9-.7,6.8-1.7l-.3,6.8c-1.9.5-6.4.7-8.5.7-9.4,0-16.7-4-16.7-9.2s7.5-9.6,17.2-9.6,5.5.3,8,.8l.3,6.9Z"/>
    <path class="st2" d="M1012,65.5s0,0,0,0c0,0,0,.1,0,.2-.9,7.6,6.6,34.8,30.6,45.6,0,0,0,0,0,0,.2.1.4.2.6.3.6.3,1.2.6,1.8.9.4.2.8.2,1.2.5.2.2.5.3.7.5,1.3.7,2.5,1.4,3.8,2.1,1.1.6,1.7.9,2.8,1.4-1.1-.7-1.5-.7-2.5-1.4-.7-.5-1.5-.8-2.2-1.2-.4-.2-.5-.6-.9-.8-.5-.3,0,0-.4-.3-.3-.1-.9-.7-1.2-.8-.4-.3-1.6-1-1.9-1.5,0-.2-1-.9-1.1-1-.3-.3-.6-.6-.8-.8-.4-.2-.4-.4-.7-.7,0,0-.5-.6-.6-.7-.4-.5-1-1.3-1.5-1.8-.5-.4-.9-1.5-1.3-2-.2-.2-.5-.6-.7-.9-.7-.9-1.2-2-1.7-3-.6-1-.7-1.5-1.3-2.8l-.5-.6c-13.2-18.7-7-43.8,2.6-56.6,14.7-19.7,41.8-24.3,56.6-25.4-.4-.4-.8-.8-1.3-1.1-.3-.2-.7-.5-1-.6,0,0-.2,0-.3,0-.1,0-.3,0-.4,0-.1,0-.2-.3-.3-.3-.3,0-.5,0-.8,0-.1,0-.1.7-.2.6-.2,0-.5-.2-.7-.2-.2,0-.2-.3,0-.5-.4-.1-.8,0-1.2,0-.4,0-.7,0-1.1,0,0,0-.2,0-.2,0,0,0-.9,0-1.2,0,0,0-.4-.4-.3-.5.1,0,1.1,0,1.2,0,.2,0,.5,0,.7,0,0,0,.3,0,.4,0,.2,0,.5-.2.5-.2,0,0,.4-.1.3-.1-.6-.6-1.4-1-2.2-1.4-.1,0-1.4-.5-1.6-.6,0,0-1.2,0-1.6-.2-.1,0-.5-.3-.5-.4.2,0,.9.2,1.1.2.3,0,.5,0,.8,0,0,0,0,0,0,0-.2,0-.4-.2-.6-.2,0,0-.2.1-.2,0-.4-.2-.8-.5-1.2-.7-.9-.4-1.8-.8-2.7-1.1-.7-.1-3.5-1.1-4.4-1.3-.7-.1-1.3.1-1.9,0-1.5.2-4.5.9-6,1,.4-.1,1.5-.6,2.3-.9-.2,0-1,0-1,0-.7,0-1.5,0-2.2,0-1.2.1-4.6.6-4.6.6-.1,0-1,.3-1,.3,0,0,0,0,0,0,.5.2,1.1-.2,1.6-.1,0,0,0,.3-.2.3-1.1.3-4.9,1.3-5.1,1.3s0,0,0,0c0,.3-.9.4-1,.4,0-.1-.7,0-.7,0,0,0-.2,0-.2.1,0,0-1.2.6-1.8.8-.5.2-1,.5-1.5.6,0,0,0,0-.1,0-.2.2-.4.3-.6.3-.1,0-.3,0-.5,0,0,0-.1.2-.2.2-.4.3-.9.4-1.3.6-.9.5-4.2,1.9-4.6,2.2-.2,0-.4.2-.5.3h-.4c0,0-.8.2-.8.3-.2,0-1.2.7-1.4.9,0,0-.6.2-.9.4,0,0-.4.4-.5.6.1,0,.5,0,.5,0-.4.3-.7.6-1.2.8,0,0-.7-.2-.6-.3.3,0,.5-.2.7-.4,0,0,0-.2,0-.2.3-.3.7-.4,1.1-.6,0,0,.4-.2.4-.3.3-.2.4-.4.7-.6.3-.1,1-.6,1.1-.6.3,0,.6-.3.9-.4h0c.1,0,.3,0,.4-.1.2-.1.3-.4.5-.5.2,0,3.2-1.5,3.3-1.5.3,0,.6-.2.9-.3,0,0,.2-.2.3-.2.1,0,.3,0,.4,0,.2,0,.3-.3.5-.4.2,0,.3,0,.5,0,0,0,.2,0,.3-.1,0,0,0-.1,0-.2,0,0,.1,0,.2,0,0,0,0,0,0,0,.1,0,.3,0,.4,0,.1,0,.2-.2,0-.3.1-.1.4-.3.6-.2,0,0,.5,0,.8,0,0,0,.4,0,.3-.2,0-.2-.3,0-.4,0,0,0-.2,0-.2,0,0,0,.1-.1.2-.2,0,0,.4,0,.4,0,0,0,.9-.3,1.2-.3.2,0,.2-.3.4-.3.2,0,.4-.2.6-.3,0,0,.5,0,.6-.1,0,0,.1,0,.2,0,.2,0,.2.2.4.2,0,0,.6-.4.8-.4,0,0,.1,0,.1-.1,0,0-.2-.2-.3-.2-.4.3-.8.2-1.2.3,0,0-.2.1-.2.2,0,0-.1-.1-.2-.1s-.2,0-.2,0c-.3.2-.6.3-1,.4-.2,0-.5.1-.7.2-.2,0-.4,0-.7.2,0,0-.2,0-.3,0,0,0-1,.4-1.1.4-.3,0-.6.2-.9.3,0,0-.5.2-.5.3-.3.1-.6.3-.9.4,0,0-.4.1-.5.2-.3.1-.6.2-.9.4,0,0-2.2,1-2.2,1,0,0-1.4.7-1.4.7-.2.1-.4.1-.5.3-.7.3-1.3.8-2,1.1-.3.1-.5.3-.8.6,0,.1-.2.3-.3.3-.2,0-.5,0-.6,0-.2.1-.3.2-.5.4-.4.3-1.3.8-1.3.9-.1.2-.3.3-.5.4-.1,0-.3.1-.5.2-.2.2-.3.6-.6.6-.4,0-1,.5-1.1.6-.5.3-.8.8-1.3,1.1,0,0-.7.6-1,.8,0,0-.6.4-.7.6-.2.1-.6.6-.7.7-.2,0-.4.1-.5.3-.5.3-1.4,1.3-1.5,1.4-.3.3-.7.6-1,.9-.2.2-.4.4-.6.6-1.9,1.8-17.4,18.7-15.9,41.2ZM1084.3,11.1c.4,0,.8,0,1.2,0,.1,0,.3,0,.4.1,0,0,0,0,0,.1,0,0-.1,0-.2,0-.2,0-.4,0-.6,0,0,0-.1,0-.1,0-.3,0-.6.1-.7-.1,0,0,0,0,.2,0ZM1063.7,6.5s0,0,0,0c0,0,0,0-.1,0,0,0,0,0,0,0ZM1014,73.4s0,0-.1-.1c0,0,0-.1,0-.2,0-.2,0-.4,0-.6,0-.2-.2-.4,0-.6,0,0,0-.1,0-.2,0-.2,0-.4-.1-.6,0-.3,0-.6,0-1,0-.1,0-.3,0-.4,0-.1-.1-.2,0-.4,0-.1,0-.2,0-.3,0,0,0-.1,0-.2,0,0,0,0,0,0,0-.3,0-.5,0-.7,0,0,0-.1,0-.2,0-.2,0-.4,0-.6,0,0,0-.2,0-.3,0-.4-.2-.8,0-1-.2,0,0-.2-.1-.4,0-.1,0-.3,0-.4,0,0,0-.1,0-.2,0,0,0-.1,0-.1,0-.2,0-.4,0-.6,0,0,0-.1,0-.2,0,0,.1,0,0-.1,0,0,0,0,0-.1,0,0,0,0,0,0,0-.1,0-.2,0-.3,0,0,0,0,0,0,0,.2,0,.4,0,.6,0,.4,0,.7,0,1.1,0,.1,0,.2,0,.3,0,.3,0,.5,0,.7,0,0,0,.2,0,.3,0,.1,0,.3,0,.4,0,.1,0,.3,0,.5,0,.3,0,.6,0,.9,0,0,0,.1,0,.2,0,.3,0,.6,0,.9,0,.3,0,.5,0,.7,0,.3,0,.6,0,1,0,0,0,.1,0,.1.1.1.1.4,0,.6,0,0,0,.1,0,.1,0,.5,0,.9.1,1.4,0,0,0,0,0,0ZM1028.4,27.4c.3-.5.8-.8,1.1-1.4,0,0-.1-.1-.1-.2,0-.2,0-.4.3-.4,0,0,0,0,0,0,0,0-.1,0-.2.1,0,.1.1.1.1.1,0-.2.2-.2.3-.4,0-.1.1-.2.2-.3,0,0-.2,0-.1-.1,0-.1.1,0,.2,0,0,0,0-.1,0-.2.1-.2.3,0,.4,0,.3-.2.5-.4.7-.7,0-.1,0-.1-.1-.2.1-.1.2-.3.3-.3,0,0,.1,0,.2,0,.1,0,.3-.2.3-.3,0-.2.2-.3.3-.4,0,0,0,0,0-.1,0-.1.3-.2.2,0,0,.2-.3.4-.2.5,0,0,.1.1,0,.2-.3.3-.5.8-1,.9,0,0-.1.1-.1.2,0,.3-.2.2-.5.3,0,0,0,0,0,0,0,.1-.2.2-.2.4s-.2.3-.3.5c0,.1.1.1.1.2-.1.2-.3.3-.5.4,0,0-.1,0-.1,0-.1.1-.2.3-.3.5,0,.1-.2.1-.3.3,0,0-.1,0-.1,0-.1.2-.4.5-.6.4-.1,0,0-.2,0-.3ZM1021.8,36.2c.3,0,.3-.3.5-.6,0-.2.3-.3.4-.5,0-.1,0-.2,0-.3,0-.1.2-.1.2-.3,0,0,0-.2,0-.3,0-.1.3-.1.3-.2,0-.2,0-.4,0-.4.3,0,.5-.2.6-.4,0,0,.1,0,.2,0,.2,0,0-.3.1-.5,0,0,.1-.1.2-.2,0,0,0-.2,0-.2.3-.2.3-.5.3-.8,0,0,0,0,.1-.1.2,0,.3.2.5,0,.2,0,0-.3.1-.4.1-.2.2-.4.5-.4.2,0,.2-.3.2-.4,0-.1.2-.1.3-.2,0-.1,0-.2.1-.3.1-.1.4-.1.4-.3,0-.1.2-.2.3-.3,0,0,0-.1,0-.2,0-.2.3-.4.4-.6,0,0,0,0,.1,0,.1,0,.2.2.1.3,0,.2-.2,0-.3,0,0,0,0,0,0,.1,0,.1.3,0,.2.2-.2.2-.5.4-.5.6,0,.2-.3.3-.4.4,0,.1-.1.2-.2.4,0,.1-.2.2-.3.3-.2.1-.2.4-.3.6,0,0-.1.1-.2.2,0,0,0,.1,0,.2,0,0-.2,0-.2.1,0,.2-.2.3-.3.4-.3.4-.6.6-.8,1,0,.1-.2.3-.2.5,0,.2-.3.3-.4.5-.1.3-.3.5-.5.8,0,.1-.3.2-.4.3-.3.3-.3.7-.5,1.1,0,.1,0,.3,0,.4,0,.1-.2,0-.3,0,0,0,0,0,0,0,0,0-.2-.1-.2-.2,0,0,0,0,0,0,0,0-.2,0-.2-.2,0,0,0,0,0,0ZM1019.2,41.7c0-.1.1,0,.3,0,0,0,0,0,.1,0,0,0,0-.2,0-.2,0,0-.2.1-.2,0,0-.2.1-.3.3-.3,0,0,0,0,0,0,0-.1-.1-.2-.2-.2,0,0,0,0,0,0,.1,0,.3.1.4,0,0-.2-.1-.3-.1-.4,0-.2,0-.3.1-.5,0-.2.2,0,.4,0,0,0,0,0,0,0,0,0,.1-.1.1-.2,0-.2-.4,0-.3-.3,0-.2.1-.3.3-.3,0,0,.2.2.2,0,.1-.3.3-.6.5-.5.2,0,0,.3,0,.5,0,0-.1.1-.1.2,0,.2,0,.3-.1.5-.1.2-.2.4-.3.6,0,0,0,.2,0,.3,0,0-.2.2-.2.3-.1.5-.3.8-.6,1.2,0,0,0,.2,0,.2,0,0,0,0-.1,0-.1.3-.2.6-.3.9-.2.3-.2.7-.4,1,0,0-.3,0-.2-.2,0,0,.2,0,.2-.1,0-.2.1-.3.2-.4,0-.2,0-.4,0-.5,0-.1.2-.2.2-.3,0-.3.1-.5,0-.8,0-.1-.4,0-.3-.2,0,0,0-.1,0-.2ZM1014.9,53.2s0,0,0,0c0,.1,0,.3,0,.4,0,.1-.1.2-.1.3-.2.6-.1,1.3-.4,1.9,0,0,0,0,0,0,0-.2,0-.4,0-.6,0,0,0-.2,0-.3,0-.1,0-.3,0-.4.1-.2.2-.3.2-.5,0-.2.2-.3.2-.5,0-.1,0-.3,0-.5,0-.1,0-.3.3-.3,0,0,0,.1,0,.2ZM1016.7,47.1c-.1.6-.3,1.1-.5,1.7,0,.1,0,.2,0,.3-.1.2-.1.4-.2.7,0,.3-.2.5-.3.8,0,.3-.2.6-.3.9,0,.2,0,.4-.2.5,0,0,0,.2,0,.3,0,0-.1,0-.1.1,0,.1,0,.2,0,.4,0,0-.1,0-.2.1,0,0,0,0,0,0,0-.4.3-.8.1-1.2,0,0,.1,0,.1-.1,0-.2.1-.3.2-.4,0-.1,0-.3.1-.5,0,0,0,0,0-.1,0-.2,0-.5.3-.7,0,0,0-.2-.1-.2,0,0,0,0,0-.1,0-.1,0-.3,0-.4,0-.1,0-.2,0-.3,0-.4.3-.7.4-1.1,0,0,.1-.1.1-.2,0-.3.2-.6.3-.9,0-.1,0-.2,0-.3,0,0,0,0,.1,0,.1,0,.1.2.1.3,0,.1,0,.3,0,.4ZM1018.6,44.1s0,0,0,.1c0,0,.2,0,.1.1,0,.1-.3.3-.4.2.1-.1,0-.4.2-.5ZM1028.1,34.7c-.3.3-.5.7-.6,1.1,0,0-.1,0-.2.2,0,.3-.3.5-.3.8,0,.1-.2.2-.3.3-.2.4-.4.7-.6,1-.2.3-.2.1-.3.4-.2.4-.6.7-.7,1.1-.1.4-.3.9-.6,1.2,0,0,0,0,0,0-.2.2-.2.4-.3.7,0,0-.2.2-.2.3,0,0,0,.1,0,.2-.3.3-.3.6-.5.9,0,.3-.3.5-.3.8,0,.2-.2.4-.3.6,0,0,0,.1,0,.2,0,.3-.4.5-.5.8,0,.3-.4,1-.2,1.3-.3.3-1.1.6-.7,1.1,0,0,0,.1,0,.2,0,0-.3,0-.3.2-.1.3-.4.4-.4.7,0,0,0,0,0,.1,0,0-.3,0-.3.1,0,.3.2.9.2,1.2,0,0,0,.2,0,.3,0,.2-.3.3-.3.4,0,0,0,.2,0,.3-.3.4-.2,1-.4,1.4,0,.2-.5.4-.5.7,0,0,0,.1,0,.2,0,0-.1,0-.2.2,0,.2.3.4.2.6,0,0-.2.1-.2.2,0,.3,0,.5-.2.7-.2.3-.2.6-.4.8.2.3,0,.8,0,1.1,0,.2.2.5.2.7,0,0,0,0-.1.1,0,.1,0,.2,0,.3,0,0,0,.2,0,.3-.2.4,0,1.1,0,1.6,0,0,0,.1-.1.2,0,.3,0,.7,0,1,0,.3-.2.7-.2,1,0,0,0,0-.1.1-.2.4.2,1,0,1.5,0,0,0,.1,0,.2,0,.2-.2.4-.2.7,0,.3,0,.7,0,1,0,.6.3.8.2,1.4,0,0,0,0,0,0,0,.3,0,.5,0,.7,0,.7.4,1.4.3,2.1,0,0,0,.3,0,.3,0,.5.2,1.2.2,1.7,0,0,0,0,0,.1,0,.3.2.6,0,.7-.1,0-.1-.2-.2-.3,0-.1,0-.3,0-.4,0,0-.3,0-.4,0,0-.2,0-.3,0-.5-.1-.5,0-1.1-.2-1.6,0-.3,0-.6,0-.8,0,0,0,0,0,0,0,0,0-.2,0-.2.2-.2-.4-.4-.3-.6,0,0,.1,0,.1-.1,0-.2,0-.3,0-.5,0,0,0-.2.1-.3,0,0,0-.2,0-.3,0-.5-.6-.8-.5-1.3,0-.1.3-.2.3-.4,0-.2,0-.4,0-.7,0,0,0,0,0-.1,0,0,0-.1,0-.1,0-.4-.3-.8-.1-1.2.1-.3-.2-.8,0-1.2,0-.1,0-.3,0-.4,0-.2,0-.5,0-.7,0-.2.2-.5.2-.7,0-.1,0-.3,0-.4,0-.1.3-.2.3-.3,0-.1-.3-.5-.3-.6,0-.1,0-.3,0-.4,0-.1.3-.2.3-.3,0-.1,0-.2,0-.3,0-.3-.1-.7-.1-1,0-.2,0-.3,0-.5,0,0,0-.1.1-.2,0-.4.2-.7.2-1.1,0,0,.1-.1.1-.2,0-.3.2-.5.2-.8,0-.5.3-.8.5-1.3.1-.4.3-.7.3-1.1,0-.1,0-.3,0-.4,0,0-.2-.1-.3-.2,0,0,0-.2,0-.3.2-.2.1-.5.3-.7.1,0,.3,0,.4-.2.3-.6,0-.9.2-1.5,0,0,.5-.5.5-.6,0-.2,0-.4.1-.6,0-.2.3-.8.3-.9.1-.3.3-.2.3-.5,0-.3.7-1,.9-1.2,0,0,0-.2,0-.2-.2-.3,0-.7.1-1,0,0,.4-.4.4-.5,0-.2,0-.2.2-.4,0-.1.3-.6.3-.8,0-.1.2,0,.2-.1,0-.3.3-.5.3-.8,0-.3.3-.4.4-.7,0,0,0,0,0-.1,0,0,0,0,.1-.1,0-.2.2-.3.3-.5,0,0,0-.2,0-.2.1-.1,0,.3.1.2,0-.2-.2-.5,0-.7.1-.2.2.2.3,0,.2-.4.6-.8.7-1.3,0,0,0-.2.2-.1,0,0,0,0,0-.1.1-.1.2-.3.3-.5,0,0,.1-.2.3-.3,0,0,0,0,0-.1,0-.1.2-.3.3-.3,0,0,0,0,0-.1.1-.1.3-.3.3-.4.2-.4.4-.7.6-1,.1-.2.3-.4.3-.7,0-.1.3-.1.3-.3,0-.3.3-.5.5-.5.1,0,0,.2,0,.3-.2.2-.3.4-.3.6,0,0,0,0-.1.1,0,.3-.3.4-.3.6,0,0,0,.2,0,.2Z"/>
    <g>
      <path class="st2" d="M1117,50.5s.1,0,.1,0c.2,0,.4.1.7.2,0,0,0,0,.1,0,0,0,.1,0,.2,0,.1,0,.2,0,.3.1,0,0,0,.1,0,.1,0,0,.2,0,.3,0,.3.1.5.2.8.3,0,0,.2.1.3.2,0,0,.2,0,.2,0,0,0,0,0,0,0,.2,0,.4,0,.5.2.2.2.6.1.8.4,0,0,.2,0,.2,0,1.1.6,2.2,1,3.2,1.7,1,.5,1.8,1.4,2.8,2,0,0,0,.1.1.2,1.6,1.2,3,2.5,4.3,4,0,0,.1.2.3.2,0,0,0,.1.1.2,0,0,.1,0,.2,0,.6.5.9,1.2,1.4,1.8.7.8,1.2,1.7,1.8,2.7.2.4.4.8.6,1.2.5,1.1.9,2.1,1.3,3.3,0,0,0,.2,0,.3.1.3.2.6.3,1,0,.1.1.2.2.3.5,2.1.7,4.2.8,6.5,0,.9,0,1.7-.2,2.6-.1,1.1-.3,2.3-.7,3.4-.4,1.2-.7,2.3-1.3,3.4-.1.3-.3.6-.5.8,0,0,0,.2,0,.3-.1,0-.1.2-.2.1,0,0,0-.2,0-.3.1,0,.1-.2.1-.2,0,0,0,0,0,0,0-.1,0-.3,0-.4,0,0,0,0,.1,0,0-.2.2-.3.3-.5,0-.2,0-.4.1-.6,0,0,0-.2,0-.2,0-.2.2-.5.1-.7,0-.1,0-.2-.1-.2-.1.3-.2.6-.3,1,0,0,0,0-.1.1,0,0,0,0,0,.1,0,0,0,.2-.1.3,0,0,0,.2,0,.3,0,0,0,0-.1.1-.1.4-.2.7-.4,1,0,0,0,.1,0,.2,0,0,0,0,0,0,0,.3-.2.5-.3.7,0,0,0,.2,0,.3,0,0,0,.1-.2.2,0,0,0,.2-.1.3,0,.1-.2.2-.2.2,0,0,0,0,0-.1,0-.2.2-.3.3-.5,0,0,0,0-.1,0-.1,0-.2.3-.3.4,0,0-.1.2-.1.2,0,.3-.2.6-.4.9-.2.2-.5.4-.7.7,0,0-.1.1-.2,0,0,0,0-.2,0-.2,0,0,0,0,.1-.1,0,0,0,0,0-.1.2-.3.2-.6.3-.9,0-.2.2-.3.4-.4.2-.4.4-.8.2-1.2,0,0-.2.1-.3.2,0,.2,0,.6-.2.8-.3.6-.8,1-1,1.6-.2.5-.5.9-.7,1.5,0,.1,0,.2,0,.4,0,.1-.2.3-.3.3,0-.2,0-.5,0-.7,0-.1-.3,0-.3,0,0,.2,0,.3,0,.5,0,0-.2.1-.2.2,0,.2-.1.3-.2.4,0,0-.1,0-.2,0-.2.5-.6.9-1.2.9,0,0,0-.2,0-.3.3-.4.7-.6.9-1,.3-.5.6-1,.8-1.6,0,0,0-.2,0-.2h-.2c0,.2-.1.4-.2.5,0,0-.2.2-.2.2-.2.3-.4.5-.5.9-.1.2-.4.3-.5.5,0,.1,0,.3-.2.4-.2.3-.4.6-.6.9-.1.1-.2.3-.4.3,0-.2.2-.4.3-.5,0,0,0-.2,0-.3,0-.2.2-.4.4-.5.2-.2.2-.6.4-.9.2-.5.5-1,.8-1.4h.1c.4-.5.6-.9,1-1.5.2-.3.4-.6.6-.9,0-.2,0-.3.2-.5,0-.3.5-.5.5-.8,0-.2,0-.3.1-.5,0-.2.2-.4.2-.6.2-.3,0-.7.2-1h.1c.2-.3.5-.7.5-1.1-.4-.1-.5.3-.7.6-.5,1-.7,2.1-1.4,3.1-.5.9-.9,1.7-1.6,2.5-.3.4-.7.7-1,1.2-.2.4-.5.8-.7,1.2-.4.5-.8.9-1.2,1.4-.1.2-.2.4-.3.6-.5.5-1,1.1-1.6,1.6,0,0-.2,0-.2,0,0-.2,0-.5,0-.8,0,0,0-.1.2-.2.2,0,.3.2.4.1.4-.5.9-.8,1.3-1.3.1-.2,0-.5.2-.7,0-.2.2-.2.5-.2s0,0,0-.1c0-.3,0-.6.1-.9.1-.2,0-.5,0-.8,0-.2.3-.3.6-.4.1,0,.2-.2.3-.3,0-.2,0-.5.2-.7.4-.7.9-1.3,1.2-1.9.4-.9.6-1.9,1.1-2.8.1-.2.2-.4.4-.6,0-.1,0-.2,0-.4,0,0-.2,0-.3,0-.2.5-.5.9-.7,1.4,0,.2-.1.3-.2.5-.4.8-.8,1.5-1.4,2.2,0-.1,0-.3,0-.4.6-1.2,1.5-2.2,1.9-3.6.2-.8.6-1.5.8-2.3,0-.2.2-.5.3-.7,0-.2,0-.4,0-.5,0,0-.1,0-.2,0,0,0,0,.2,0,.3-.3.5-.5,1.1-.9,1.6-.2.4-.4.8-.5,1.2-.2.5-.6.7-.8,1.2,0,.2-.3.2-.4.5v.2c-.3.5-.7,1-1,1.5-.3.6-.8,1-1.2,1.5-.2.3-.2.6-.3.9,0,.3-.2.6-.4.8-.2.2-.3.5-.6.5,0,0,0-.1,0-.1,0,0,0-.1,0-.1.2-.1.3-.3.4-.5.2-.3.2-.7.5-1,.2-.1.2-.4.3-.6.1-.2.3-.4.4-.6,0,0,0,0,0-.1.2-.2.3-.4.5-.5,0,0,0-.1,0-.1.1-.3.3-.5.5-.8,0,0,0-.1.1-.2,0,0,0-.1,0-.2,0,0,0,0,.1-.1,0,0,0-.2.1-.3,0,0,.1,0,.1-.1.1-.4.3-.6.5-.9,0,0,0-.2.1-.3,0,0,.1-.2.2-.2,0,0,0-.2,0-.2.2-.4.4-.8.7-1.2.6-1,.9-2,1.4-3,0,0,0-.1,0-.2,0,0,.1,0,.1,0,.1-.3.2-.6.2-.9,0,0,0-.1,0-.2,0,0,0,0,0-.1.1,0,.2-.1.2-.2,0-.2,0-.4.1-.6,0,0,0-.3,0-.4.1-.2,0-.4.1-.5,0,0,0,0,.1,0,0,0,0-.1,0-.1,0-.6.3-1.2.3-1.9h0c.2-1.1.2-2.1,0-3.1,0-.2,0-.3,0-.5,0-.1,0-.2,0-.3-.4-1.9-1.3-3.6-2.7-5.1,0,0,0,0,0,0,0-.1-.2-.3-.3-.3-.3-.2-.5-.4-.7-.6-.4-.3-.7-.5-1.1-.8-.5-.4-.9-.6-1.4-.8-.8-.5-1.7-.8-2.6-1,0,0-.2,0-.2-.1-.4,0-.8-.2-1.2-.4-.6-.2-1.2-.2-1.9-.3-.4-.1-.8,0-1.2,0,0,0,0,0,0,0-.4,0-.8,0-1.2,0-.4,0-.8,0-1.2,0-.4,0-.9,0-1.3,0-.3,0-.7,0-1,0-.4,0-.9,0-1.3.1-.8.2-1.5.2-2.2.3-.7.1-1.4.3-2.1.5-.5.1-1.1.3-1.6.4-.3,0-.6.1-.9.2-.8.2-1.5.4-2.2.8,0,0,0,0-.1,0-.1,0-.2.2-.3.2,0,0-.1,0-.2,0-.2,0-.4.2-.5.2-.3.1-.6.3-1,.4,0,0-.1,0-.2.1-.1,0-.2,0-.3,0-.6.3-1.1.5-1.7.9-.1.1-.3.2-.4.3,0,0-.2,0-.2,0-.7.3-1.4.7-2,1.1-.2.1-.3.3-.5.4-.6.3-1.1.7-1.6,1.1-.1,0-.3.2-.4.3-.2.2-.4.3-.7.4,0,0-.2,0-.4,0,0,0-.2,0-.2,0,0,.2-.2.2-.2.4,0,0,0,.3-.2.2-.2,0,0-.4-.2-.4,0,0-.3.2-.3,0-.1-.2.1-.4.3-.5.1,0,0-.1,0-.2,0,0,.2-.1.3-.1.1,0,.2,0,.2.2,0-.2,0-.3.1-.4,0,0,0-.2,0-.3,0,0,.1,0,.2-.1,0,0,0,0,0,0,0,0,0,0-.1,0,0,.1-.2.2-.2.4-.3,0-.5.2-.7.4,0,0-.1.2-.2.2-.1,0-.2,0-.3.1-.4.2-.6.6-1,.7,0,0-.1,0-.2,0-.1,0,0,.2-.2.3,0,.1,0,.3-.2.2-.2,0-.5,0-.6.2,0,0,0,.2,0,.3,0,.2-.2.4-.4.3,0,0,0-.1-.2,0,0,0,0,0-.1.1,0,0,0,0,0,0-.2.1-.3.3-.4.5,0,0-.1,0-.1,0-.1.1-.2.3-.3.4,0,0-.1,0-.2,0-.2,0-.4,0-.4.1-.1.2-.3.5-.4.7,0,0-.2.1-.3.2,0,0,0,0,0,0,0,0,0,0,0,0,0,0,0,0,0,.1-.2,0-.5.5-.6.7,0,0,0,0,0,0-.5.7-1.2,1.7-1.8,2.4,0,0,0,.3-.2.5-.2.4-.6.8-.9,1.2v.3c-.9.6-.6,1.7-1.2,2.4-.2.2-.3.4-.7.5v-.3c-.2.3-.4.7-.6,1v-1.1c-.2,0-.2.2-.4.4-.7,1.1-.5,2.5-1.5,3.3v-.6c-.5.4-1,.9-1.4,1.5-1.6,2.2-1.7,4.8-2.6,7.3h-.2c-.2-.3,0-.7,0-1.2,0,.2-.2.7-.5.7,0-.2-.2-.5,0-.7,0,.3-.2.8-.6.8v-1.3c0,.3,0,.7-.3.9,0-.5,0-1.1,0-1.6h-.2c-.2.4-.2.9-.4,1.3h-.3c-.2-.7,0-1.2,0-1.9-.7,0-.3,1.2-1,1.4-.3,0-.8,0-.9-.2-.2-.4,0-.9-.2-1.2-.5-.7,0,.8-.6.9-.3,0-.8,0-1-.4-.2-.3,0-.8-.2-1.2,0,0-.3-.3-.3-.2-.2.3,0,1.1-.6.9-.2,0-.4-.2-.5-.4v-.3c-.2.2-.4,0-.6,0-.2,0,0-.3,0-.6-.3,0-.6.5-.7.3-.2-.9,0-1.9,0-2.9h-.2c-.2.3,0,1.1-.7,1.2,0-.3,0-.7,0-.9,0-.9.4-1.9.2-2.9h-.3c-.2,1.1-.4,1.8-1,2.6-.2.5-.3,1.1-.7,1.6h-.2c.2-1.2.7-2.2.7-3.5h.3v-.3c0,0,.2-.2.2-.3,0-.4.2-.7.3-1.2.5-1.8,1.9-4.7,2.3-6.5,0-.4-.5.5-.5,0-.8,2.4-2.2,4.6-3.1,7-.6,1.5-1.2,3-1.3,4.5,0,0-.2,0-.2,0,0-.4-.3-2.3-.2-2.7.8-3.8,2.1-5.7,3.2-9.2.2-.7.8-1.4,1-2.2-.4,1-1.3,1.6-1.8,2.6-1.2,2.6-2.3,5.1-3.2,7.8v.6c0,0-.6.2-.6.3,0-.8.3-1.6.5-2.4.4-2.1,1-4.1,1.7-6.1.7-1.7,1.9-3.2,2.6-4.9,0,.2,0,.5,0,.4.3-.2.5-.7.8-.9.5-.3.4-1.1.6-1.7,0-.3.6-.6.7-.9.6-1.3,2-2.2,2.7-3.3.5-.7,6-5.3,6.6-5.8.1,0,.2,0,.3-.2.1,0,.3-.2.4-.3.1-.2.4-.3.7-.4,0,0,.7-.6.8-.7.7-.4.9-.4,1.6-.8.2,0,.8-.7,1-.8.7-.7,1.4-.7,1.9-1.5,1,0,.8-.1,1.5-.9,0,0,.8,0,.9,0,.9-.7,1.7-1.3,2.6-2,.2,0,.6,0,.9,0,.3,0,.6-.2,1-.3.2,0,.4,0,.5-.2.5-.2,1-.5,1.5-.7.9-.4,1.8-.4,2.7-.5.6,0,1.2-.7,1.8-.8.7-.2,1.4.3,2,.2,1,0,2-.1,3-.3,1.3-.1,2.3-.2,3.1-.2,1.3,0,2.4,0,4.4.2.4,0,2.6.3,3.1.4,1.1.2,2.9.7,4,.8.4,0,.9,0,1.2.3M1067.2,72.5c0-.4.6-.7.8-1.2.4-.9,1-1.8,1.8-2.6.3-.2.6-.4.8-.7,2-2.1,3.9-4.1,6-6.1.2,0,.2-.6,0-.7-.4-.2-.8,0-1.2.2-.2.4-.7.5-.8,1-.2.6-1.1.9-1.5,1.6-.6.9-1.2,1.6-2.1,2.3-.7.7-1.6,1.2-1.8,2.2h-.2c0,.2-.2.3-.2.6,0,0-.2,0-.2,0-.3.3-.5.7-.7,1.2-.2.2-.4.3-.5.4-.2.2-.5.4-.7.7-.2.3-.4.8-.2,1.1,0,.2.4,0,.7,0,0,0,0,0,0-.2Z"/>
      <path class="st2" d="M1089.3,74.4c.9-1.3,2.3-2.1,3.4-3.2.2-.2.2-.4,0-.6-.2-.2-.4-.2-.6,0-1.2,1.1-2.6,2-3.4,3.4-.1.1,0,.4,0,.5.1.1.4,0,.5,0Z"/>
      <path class="st2" d="M1087.5,75.3c-.2.2-.3.3-.5.5-.1.1-.2.3,0,.5.1.1.3.2.5,0,.2-.2.4-.4.6-.5.1-.1.1-.3,0-.5-.1-.1-.3-.1-.5,0h0Z"/>
      <path class="st2" d="M1086.3,76.7c-1.1,1-1.8,2.3-2.4,3.7,0,.2,0,.4.1.5.2,0,.4,0,.4-.1.6-1.3,1.3-2.6,2.4-3.5.1-.1.1-.3,0-.5-.1-.1-.3-.1-.5,0h0Z"/>
    </g>
    <path class="st0" d="M1106.7,114.9c-2.9,1.6-5.4,3.1-8.4,4.4-.9.4-1.8.8-2.8,1.1-1.2.4-2.4.8-3.6,1.1-.8.2-1.6.4-2.4.6-3.2.6-6.2,1.2-9.4,1.3-1.4.1-2.7,0-4.1,0-1,0-1.9,0-2.9,0-.7,0-1.4,0-2.1-.2,0,0,0,0,0,0,0,0,0,0,0,0,0,0,0-.1,0-.1-.9-.1-1.8-.2-2.7-.4-.4,0-.9-.1-1.2-.3,0,0-.2,0-.3,0,0,0,0,0-.1-.1-.3-.1-.7-.1-1-.2-.4,0-.8-.1-1.2-.2-.2,0-.4,0-.6-.2,0,0-.1,0-.2,0-.6-.2-1.1-.4-1.7-.5,0,0-.2,0-.2,0-.6-.2-1.2-.3-1.8-.5-.2,0-.3,0-.5-.2-.1,0-.3,0-.5-.2,0,0-.1,0-.2,0-1.3-.6-2.5-1-3.8-1.5,0,0-.2,0-.3,0-1.4-.7-2.8-1.1-4.1-1.8-.9-.5-1.7-.9-2.6-1.4-.4-.2-.6-.5-.9-.7,0,0-.2,0-.3,0,0,0,0,0,0,0-.3,0-.5-.2-.7-.4-.6-.4-1.2-.8-1.7-1.3-.3-.2-.5-.3-.7-.6,0,0,0-.3,0-.4.2.1.4.3.6.4.4.2.7.4,1.1.6.2.1.3.2.5.2.2,0,.2.3.3.4.3.1.5.3.6.5,0,0,.2,0,.2.1.3.2.6.4.9.6,0,0,.2.1.3.1.1,0,.3-.2.3-.2.5.2.9.4,1.3.7,0,0,.2,0,.2,0,.3.2.6.4.9.5.2.1.4.2.6.3,0,0,.1,0,.2,0,.2.1.4.2.6.3,0,0,.2.1.3.1.2,0,.2.1.3.1,0,0,0,0,.1,0,.2.1.2,0,.4.2-1.1-.7-1.6-.8-2.5-1.5-.7-.5-1.4-.8-2.1-1.3-.4-.3-.5-.6-.9-.8-.5-.3,0,0-.4-.3-.3-.2-.9-.7-1.2-.9-.4-.3-1.5-1.1-1.8-1.6,0-.2-.9-.9-1-1-.3-.3-.6-.6-.8-.8-.4-.3-.4-.4-.6-.7,0,0-.5-.6-.5-.7-.4-.5-.9-1.3-1.4-1.8-.5-.4-.8-1.5-1.2-2-.2-.2-.5-.6-.7-.9-2.2-3.9-3.1-7.2-3.1-7.2-.2-.3-.3-.6-.4-.9.2,0,.1.3.3.4,0-.3-.2-.4-.3-.7,0,0-.2-.8-.2-.9-.6-1.5-.8-3.9-.8-3.9,0-.6-.2-1.1-.2-1.7,0-.5-.1-2.9,0-3.6,0,0,.1-.1.2-.1,0,0,0,0,0,0,0-.2,0-.4,0-.6,0,0,.2-.8.1-1,0-.2,0-.4,0-.5,0-.2,0-.4,0-.5,0,0,0,0,0,0-.1,0-.1.2-.2.3,0,.2,0,.4,0,.6,0,0,0,.3,0,.4,0,0-.1,0-.2,0-.1,0,0-.2,0-.3,0,0,0-.2,0-.3,0,0,.1-1,.1-1.1,0,0,0-.5,0-.6,0,0,0-.5.1-.7,0-.2,0-.5.2-.7,0,0,0,0,0,0,0,.2-.1.9-.1,1,0,.4.2,1,.2,1,0-.2,0-.6.1-.6,0-.1,0-.3,0-.4.1-.2.2-.4.2-.6,0,0,0-.2,0-.3.1-.2,0-.3.1-.5,0,0,.2,0,.1-.1,0-.6.3-1.2.4-1.8,0,0,0-.2,0-.3,0,0,.1-.1.1-.2.1-.2.2-.4.2-.6,0,0,.1,0,.1,0,0-.2,0-.4.2-.6.1-.1,0-.4.2-.6,0,0,0-.6.1-.7,0-.1,0-.4,0-.4,0,0,0,.1-.1.2,0,.1-.2.5-.2.6-.1.4-.3.7-.4,1,0,0,0,.2,0,.3-.1.3-.2.5-.3.8-.2.7-.3,1.2-.5,1.9,0,0,0,0,0,0,0-.1,0-.2,0-.3,0,0,.2-.7.3-.8,0-.3,0-.6.2-.8,0,0,0,0,.1-.1,0-.1,0-.3,0-.3.3-1,.7-1.9,1.1-2.8.2-.5.4-1,.7-1.5,14.8-25.6,42.2-22.4,51.6-20-.6.3-2.1.9-2.3.9,0,0-9.8-1.6-16.7.9-.2,0-.3.1-.5.2,0,0,0,0-.1,0-.1,0-.3,0-.4.1-.1,0-.3,0-.4,0-.3.1-.6.2-.9.2-.1,0-.3,0-.4.2,0,.3.4.2.7.2,0,0,0,0,0,0,.4-.2.9-.4,1.3-.3,0,0-.1.2-.2.3-.3,0-.6.2-.9.2-.1,0-.2.1-.3.2-.7.2-1.4.6-2.1.9,0,0-.2,0-.3,0-.3.2-.7.4-1.1.5-.2,0-.3.3-.4.5,0,.1-.2.2-.4.2,0,0,0,0,0,0,0,0,0,0,0,0-.1,0-.3.1-.3.3,0,0,0,.1,0,.1.4,0,.7-.3,1.1-.4.2,0,.3-.2.5-.2.2,0,.5-.2.7-.1,0,0,.1,0,.1.1,0,0,0,.2-.2.2-5.5,2.1-9,3.9-15.1,10.9v.5c0,0,.4,0,.4,0,0,0-7,7.9-5.9,16.7l.2.2v-.6c0,0,0-1.9.7-3.9,0-.2.2-.2.3-.4.3-.8.6-1.8,1.2-2.4h0s-1,1.2-.6,5c.4,3.9.2,0,.2,0l.2-.2s0-1.4.8-3.5c2-5.2,7.3-14.9,16.5-19.8l-1.4,1.3c-3.7,2.1-9.1,8.7-10.1,10.4h.4c0,.1.3-.5.3-.5h.6c0,0-.5.5-.5.5-1.6,1.9-3,5.4-3,5.4,0,0-.1.1-.1.2,0,.2,0,.3,0,.5,0,0-.1,0-.1.2,0,.1-.1.3-.1.4,0,0,0,.2-.1.2-.1.3-.2.7-.2,1,0,0,0,.2,0,.3,0,.3,0,.6,0,.9,0,.1,0,.3,0,.4-.6,1.7-.9,3.3-1,5,0,0,0,.1,0,.1,0,.6-.1,1.2-.1,1.7,0,2.5.5,12.4,5.2,17,.2.2.3.5.6.7.2.1.2.4.2.6,0,.2.2,0,.3,0,.3.2.3.5.5.8.7.7,1.4,1.4,2.1,2.1,3,2.9,10.2,7.6,20.6,7.6s23.2-7,29.4-18c6.3-11,5.6-26.3-.4-33.6,0,0-.1,0-.2-.2,0,0-.2,0-.2,0,0,0,0,0,0-.2,0-.2.2-.3.3-.3.9-.4,1.8-.7,2.8-.9.6-.1,1.2-.3,1.9-.4,0,0,.2,0,.3,0,.1.1.2.2.4.3,0,0,0,0,0,0,.3.2.3.5.5.8,0,0,.2.1.2.2.3.5.7.9,1,1.4,0,.1.1.2.2.3.2.3.4.6.8.6-.2-.5-.6-1-.9-1.5,0,0,0-.1,0-.2-.3-.5-.7-.9-1-1.5,0-.1-.1-.2-.2-.2,0,0,.1,0,0-.2.2,0,.4-.2.6-.1.2,0,.2.5.5.5,0,0,0-.2,0-.3,0,0,.2,0,.2,0,.2.2.2.8.6.8.9,1.3,1.5,2.7,2.2,4.1,0,0,0,0,0,0,0-.6-.4-1-.6-1.5-.3-1-.9-1.9-1.4-2.8-.1-.2-.4-.3-.4-.5,0,0-.2,0-.2-.2,0,0,.1,0,.2,0,0,0,0,0,0,0,0,0,0,0,0,0,0,0,.2,0,.2,0,0,0,0,0,0,.1,0,0,.2,0,.2,0,1.8,2.8,12.9,18.5.8,40.2l.2.3s-3,4-6.7,7.7c-3.7,3.7.3.3.3.3,0,0,12-8.5,13.8-24.9.3-2.7-.6-8.5-1.2-11.6v-.7c.1,0,4.8,10-1,24-2.4,5.9-8.3,13.1-13.9,16.3Z"/>
  </g>
</svg>